<?xml version="1.0" encoding="utf-8"?>
<!-- Generator: Adobe Illustrator 21.0.0, SVG Export Plug-In . SVG Version: 6.00 Build 0)  -->
<svg version="1.1" id="Layer_1" xmlns="http://www.w3.org/2000/svg" xmlns:xlink="http://www.w3.org/1999/xlink" x="0px" y="0px"
	 viewBox="0 0 512 512" style="enable-background:new 0 0 512 512;" xml:space="preserve">
<g>
	<path d="M30.2,0l40.6,459.4L256,512l184.4-52.6L481.8,0H30.2z M406.2,431.1L256,474l-150.9-42.8L70.2,36.6h371.6L406.2,431.1z
		 M113.9,94.2l1,15l14,156H256V265h69.5l-7,72.9l-63,17v0.1H255l-63-17l-4-45h-56l7,89l116.1,32h1v-0.2L371.5,382l1-10l13-149l2-15
		H255.5v0.1H181l-5-58h216.7l1-12l3-29l1-15H255.5H113.9z"/>
</g>
</svg>
